<?xml version="1.0" encoding="UTF-8"?>
<svg id="_레이어_1" data-name="레이어 1" xmlns="http://www.w3.org/2000/svg" viewBox="0 0 324.85 68.16">
  <defs>
    <style>
      .cls-1 {
        fill: #fff;
      }
    </style>
  </defs>
  <path class="cls-1" d="m24.15,67.98c-4.83,0-9.07-.62-12.72-1.86-3.65-1.24-6.59-2.73-8.83-4.48-.6-.48-1.12-1.13-1.54-1.95-.42-.81-.72-1.67-.91-2.58s-.21-1.78-.09-2.62c.12-.84.45-1.57,1-2.17,1.51-1.75,3.02-2.61,4.53-2.58,1.51.03,3.23.65,5.16,1.86,1.93,1.15,4.04,2.04,6.34,2.67,2.29.63,4.98.95,8.06.95,2.47,0,4.48-.53,6.02-1.58,1.54-1.06,2.31-2.55,2.31-4.48,0-1.39-.51-2.61-1.54-3.67-1.03-1.05-2.9-2.1-5.61-3.12-2.29-.84-4.99-2.02-8.1-3.53-3.11-1.51-6.2-3.26-9.28-5.25-1.15-.72-2.11-1.45-2.9-2.17-.79-.72-1.43-1.55-1.95-2.49-.51-.93-.89-2-1.13-3.21-.24-1.21-.36-2.62-.36-4.25,0-1.93.5-3.88,1.49-5.84s2.43-3.74,4.3-5.34c1.87-1.6,4.18-2.91,6.92-3.94,2.75-1.03,5.84-1.54,9.28-1.54,2.72,0,5.11.2,7.2.59,2.08.39,3.92.98,5.52,1.77,1.6.79,3,1.72,4.21,2.81,1.21,1.09,2.29,2.35,3.26,3.8,1.21,1.75,1.6,3.35,1.18,4.8s-1.24,2.62-2.44,3.53c-1.03.79-2.32,1.12-3.89,1-1.57-.12-2.99-.87-4.25-2.26-.79-.84-1.51-1.6-2.17-2.26-.67-.66-1.39-1.22-2.17-1.67-.79-.45-1.64-.78-2.58-1-.94-.21-2.07-.32-3.39-.32-2.84,0-5.04.51-6.61,1.54-1.57,1.03-2.35,2.38-2.35,4.07,0,.72.41,1.58,1.22,2.58.82,1,2.4,2.1,4.75,3.3.9.48,2.01,1.01,3.3,1.58,1.3.57,2.64,1.18,4.03,1.81,1.39.63,2.78,1.25,4.16,1.86,1.39.6,2.59,1.18,3.62,1.72,6.76,3.38,10.14,8.12,10.14,14.21,0,2.48-.39,4.89-1.18,7.24-.79,2.35-2.08,4.45-3.89,6.29-1.81,1.84-4.2,3.33-7.15,4.48-2.96,1.15-6.61,1.72-10.95,1.72Z"/>
  <path class="cls-1" d="m81.72,67.53c-3.26,0-6.59-.68-10-2.04-3.41-1.36-6.49-3.35-9.23-5.97s-4.99-5.84-6.74-9.64c-1.75-3.8-2.63-8.15-2.63-13.04,0-3.68.53-7.41,1.58-11.18,1.06-3.77,2.75-7.2,5.07-10.27,2.32-3.08,5.34-5.58,9.05-7.51,3.71-1.93,8.22-2.9,13.53-2.9,3.68,0,7.15.62,10.41,1.86,3.26,1.24,6.11,3.17,8.55,5.79,2.44,2.62,4.39,5.94,5.84,9.96,1.45,4.01,2.17,8.77,2.17,14.26,0,4.16-.63,8.1-1.9,11.81-1.27,3.71-3.09,6.97-5.48,9.78-2.38,2.81-5.28,5.02-8.69,6.65-3.41,1.63-7.26,2.44-11.54,2.44Zm-14.48-30.78c0,3.08.42,5.75,1.27,8.01.84,2.26,1.96,4.13,3.35,5.61,1.39,1.48,2.97,2.57,4.75,3.26,1.78.69,3.58,1.04,5.39,1.04,2.11,0,4.03-.47,5.75-1.4,1.72-.94,3.2-2.25,4.44-3.94,1.24-1.69,2.19-3.67,2.85-5.93.66-2.26,1-4.75,1-7.47s-.29-5.25-.86-7.6c-.57-2.35-1.46-4.4-2.67-6.16-1.21-1.75-2.71-3.14-4.53-4.16-1.81-1.03-3.95-1.54-6.43-1.54s-4.6.54-6.38,1.63c-1.78,1.09-3.26,2.55-4.44,4.39-1.18,1.84-2.05,4-2.62,6.47-.57,2.47-.86,5.07-.86,7.78Z"/>
  <path class="cls-1" d="m164.55,68.16c-1.93,0-3.5-.59-4.71-1.77s-1.81-2.85-1.81-5.02c0-1.69-.02-4.21-.04-7.56-.03-3.35-.04-7.04-.04-11.09v-23.72h-13.67c-2.29,0-4.13-.51-5.52-1.54-1.39-1.03-2.08-2.47-2.08-4.34,0-1.57.57-3,1.72-4.3,1.15-1.3,3.11-2.01,5.88-2.13,1.33-.06,3.03-.12,5.11-.18,2.08-.06,4.36-.09,6.83-.09h7.65c2.62,0,5.16.02,7.6.05,2.44.03,4.69.06,6.74.09,2.05.03,3.71.05,4.98.05,1.57.06,2.87.26,3.89.59,1.03.33,1.82.79,2.4,1.36.57.57.98,1.24,1.22,1.99.24.75.36,1.52.36,2.31,0,1.57-.63,2.97-1.9,4.21-1.27,1.24-3.26,1.86-5.97,1.86h-11.86c0,2.17.01,4.62.04,7.33.03,2.72.05,5.51.05,8.37v26.66c-.06,2.11-.77,3.79-2.13,5.02-1.36,1.24-2.94,1.86-4.75,1.86Z"/>
  <path class="cls-1" d="m211.89,67.62c-3.02,0-5.67-.59-7.97-1.77-2.29-1.18-4.24-2.79-5.84-4.84-1.6-2.05-2.81-4.48-3.62-7.29-.81-2.81-1.22-5.87-1.22-9.19,0-3.92.45-7.56,1.36-10.91.91-3.35,2.26-6.23,4.07-8.64,1.81-2.41,4.06-4.3,6.74-5.66,2.68-1.36,5.84-2.04,9.46-2.04,2.53,0,4.56.32,6.06.95,1.51.63,2.78,1.46,3.8,2.49.18-1.33.83-2.4,1.95-3.21,1.12-.81,2.61-1.22,4.48-1.22s3.48.56,4.66,1.67c1.18,1.12,1.83,2.85,1.95,5.2.06,1.99.09,4.11.09,6.34s-.03,4.38-.09,6.43c-.06,2.05-.12,3.91-.18,5.57-.06,1.66-.12,2.91-.18,3.76-.18,2.29-.23,4.13-.14,5.52.09,1.39.53,2.59,1.31,3.62.66.97,1.25,1.77,1.76,2.4.51.63,1.01,1.28,1.49,1.95.54.72.75,1.67.63,2.85-.12,1.18-.57,2.25-1.36,3.21-1.03,1.27-2.14,2.04-3.35,2.31-1.21.27-2.62.14-4.25-.41-1.33-.48-2.61-1.16-3.85-2.04-1.24-.87-2.22-1.79-2.94-2.76-1.09.79-2.16,1.52-3.21,2.22-1.06.69-2.17,1.3-3.35,1.81-1.18.51-2.43.92-3.76,1.22-1.33.3-2.84.45-4.53.45Zm-5.07-25.44c0,4.29.77,7.68,2.31,10.18,1.54,2.5,3.82,3.76,6.83,3.76,1.81,0,3.33-.33,4.57-1,1.24-.66,2.49-1.54,3.76-2.62.48-2.84.72-6.08.72-9.73s-.12-7.29-.36-10.91c-1.03-.91-2.19-1.58-3.49-2.04-1.3-.45-2.58-.68-3.85-.68-3.2,0-5.75,1.04-7.65,3.12-1.9,2.08-2.85,5.39-2.85,9.91Z"/>
  <path class="cls-1" d="m260.13,67.98c-1.93.12-3.53-.36-4.8-1.45-1.27-1.09-1.9-2.77-1.9-5.07V21.23c0-3.35.01-6.23.04-8.65.03-2.41.05-4.01.05-4.8.06-2.72.59-4.69,1.58-5.93,1-1.24,2.64-1.86,4.93-1.86,1.99,0,3.54.65,4.66,1.95,1.12,1.3,1.67,3.21,1.67,5.75l-.09,53.32c0,.85-.15,1.66-.45,2.44-.3.79-.72,1.51-1.27,2.17-.54.66-1.19,1.21-1.95,1.63-.75.42-1.58.66-2.49.72Z"/>
  <path class="cls-1" d="m288.47,67.98c-1.93.12-3.53-.36-4.8-1.45-1.27-1.09-1.9-2.77-1.9-5.07V21.77c0-3.29.01-6.12.05-8.51.03-2.38.04-3.97.04-4.75.06-2.72.56-4.69,1.49-5.93.94-1.24,2.58-1.86,4.93-1.86,1.93,0,3.44.65,4.53,1.95s1.63,3.21,1.63,5.75v23.81c1.33-1.15,2.79-2.35,4.39-3.62,1.6-1.27,3.21-2.52,4.84-3.76,1.63-1.24,3.27-2.43,4.93-3.58,1.66-1.15,3.24-2.2,4.75-3.17,2.23-1.39,4.16-1.87,5.79-1.45,1.63.42,2.87,1.3,3.71,2.62,1.63,2.53.69,5.13-2.81,7.78-.97.72-2.08,1.6-3.35,2.62-1.27,1.03-2.58,2.08-3.94,3.17-1.36,1.09-2.67,2.16-3.94,3.21-1.27,1.06-2.35,1.95-3.26,2.67-.48.42-.74.78-.77,1.09-.03.3.29.72.95,1.27,2.96,2.53,5.99,5.24,9.1,8.1,3.11,2.87,5.87,5.75,8.28,8.64.72.97,1.21,1.9,1.45,2.81.24.91.32,1.75.23,2.54-.09.78-.33,1.49-.72,2.13-.39.63-.86,1.16-1.4,1.58-1.03.84-2.37,1.25-4.03,1.22-1.66-.03-3.3-.89-4.93-2.58-.72-.72-1.81-1.79-3.26-3.21-1.45-1.42-3.06-2.97-4.84-4.66-1.78-1.69-3.65-3.41-5.61-5.16-1.96-1.75-3.85-3.35-5.66-4.8v13.31c0,1.63-.53,3.17-1.58,4.62-1.06,1.45-2.49,2.23-4.3,2.35Z"/>
</svg>